<?xml version="1.0" encoding="UTF-8" standalone="no"?>
<svg width="250px" height="250px" viewBox="0 0 250 250" version="1.1" xmlns="http://www.w3.org/2000/svg" xmlns:xlink="http://www.w3.org/1999/xlink">
  <title>Logo (Bison Only)</title>
<path d="M160.83,113.3c-.33-.39-.09-1.63-.86-1.68a3.58,3.58,0,0,0-1.54-1.52c-1-.55-.79-.95-1.14-1.71-.2-.42-1.37-.75-1.71-1-1.12-1-2.91-.24-4.13.15l0,.06a.65.65,0,0,0-.08.38c.07.38.28.23.43.36,0,.17,0,.32,0,.49l-.28,0c0-.27-.23-.23-.3-.44a.69.69,0,0,1-.38,0c0,.05.09.43.09.66-.14.07,0,.13-.05.25-.12-.06-.19-.18-.32-.2-.15-.33,0-.75-.23-.94,0,.13,0,.33-.13.39s0-.12,0-.12-.13.07-.23,0a.58.58,0,0,1-.22-.24,3.43,3.43,0,0,1-.7.24,2.18,2.18,0,0,0-.19.52c-.18,0-.19.13-.37.11l.05.3c0,.07.09,0,.15,0a.48.48,0,0,1,0,.3c-.21,0-.19-.27-.24-.38a.53.53,0,0,1-.81-.31s.08-.07.08-.14a.8.8,0,0,0,.73-.16c.09,0,0-.21.06-.25l0,0c-.36,0-.54.19-1,0s-.29-.52-.51-1a.56.56,0,0,0-.29,0,.55.55,0,0,1,.13-.29,2.25,2.25,0,0,0-.26-.31,7.43,7.43,0,0,1-.82-1h0c-.05.08,0,.24-.09.32s-.08-.19-.08-.17h-.16s-.06,0-.07,0,0-.13.06-.18-.11-.12-.17-.21c-.26.07-.38,0-.56.08-.11-.33-.34-.61-.23-.94-.05-.1-.14,0-.07-.17s-.18-.13-.23-.27,0-.22,0-.24-.2-.14-.27-.27a.4.4,0,0,0,0-.19c-2.44-1.36-8.57-1.59-10.75-1.36a15,15,0,0,0-2.1.4,1.09,1.09,0,0,1,.08.15.6.6,0,0,0-.09.37c.08.38.28.24.43.37s0,.31,0,.48l-.28,0c0-.26-.23-.23-.3-.44a.7.7,0,0,1-.38,0s.1.42.1.65c-.15.08,0,.13-.06.25-.11,0-.18-.18-.32-.2-.15-.33,0-.74-.22-.93-.05.12,0,.32-.14.38s0-.12,0-.12-.13.07-.23,0-.23-.23-.33-.45l-.46.18,0,.09a2.91,2.91,0,0,0-.28.7c-.18,0-.18.13-.36.12l0,.29c0,.07.09,0,.15,0a.52.52,0,0,1,0,.31c-.21,0-.18-.27-.24-.39a.53.53,0,0,1-.81-.31.17.17,0,0,0,.08-.13.82.82,0,0,0,.74-.17c.08,0,0-.2.06-.25a.2.2,0,0,0,.1-.07c-3.4,1.45-6.68,3.59-10,4.67-2.52.82-5.13,1.1-7.66,1.86a9.54,9.54,0,0,0-2.09,1,2.26,2.26,0,0,1,0,.26h0s0,0,0,0a.13.13,0,0,1-.08.11l0,0a.15.15,0,0,1,.13,0s0,0,0,0,0,0,0,0,0,0,0,.07h0v0h0a.25.25,0,0,1,0,.08s-.06,0,0,.05-.1.38,0,.59c-.11,0-.16,0-.25,0s0,.35-.18.38a.79.79,0,0,1,0-.32h0v0h0v0h0s0,0,0,0,0,0,.08,0,.1-.29.23-.35a5.66,5.66,0,0,0-.09-.76l-.31.18v0c-.18.15-.16.3-.08.63l-.16.09h0s0,0-.09,0h0a.62.62,0,0,1-.24,0c0-.17-.24-.18-.27,0l2.09,2s0,0,.05,0,.12,0,.21,0a.8.8,0,0,0,.25-.43.43.43,0,0,1,.24.28.51.51,0,0,0-.06.27c0,.27.21.17.31.26s0,.24,0,.36l-.2,0-.78-.73c-.1.08-.3,0-.42.1-.08-.13-.26-.11-.37-.21a1.91,1.91,0,0,1-.14-.69.26.26,0,0,0-.28,0c0,.06,0,.13,0,.18s-.06,0-.07,0,0,.19-.08.14-.17-.07-.2-.19.15-.07.14-.2-.14-.14-.24-.18-.06-.22-.05-.39c-.07,0-.08-.06,0-.13-.15.09-.09-.11-.13-.16h0s0,0,0,0-.08,0-.08,0l0,0s0-.12-.06-.17h0l-.23-.21-.12,0-.13,0,0,0h0c-1,.42-2,.74-3,1.24a32.76,32.76,0,0,1-7.4,3.06,9.39,9.39,0,0,0-3.55,2,5,5,0,0,0-.73.73c.15.11.38.09.49.27a.4.4,0,0,1,.17-.09,9.69,9.69,0,0,1,1.29-1c.29-.19,4.24-1.56,3.69-.11a10.44,10.44,0,0,0-.13,5.68c.78,3.82,3.62,7.52,1.91,11.59-.5,1.19-.8,1.26-.54,2.61.17.85.14,1.77.23,2.63.13,1.4-.29,3.69.12,5.16a3.68,3.68,0,0,0,.1.75c.15.66.49.14.69.41a2.14,2.14,0,0,1,.27.78l2-.24a1,1,0,0,0-.09-.89,8.37,8.37,0,0,1-.45-1.24,19,19,0,0,0,.21-3.28c-.11-.33-.33-.6-.22-.92,0-.11-.15,0-.07-.17s-.18-.14-.23-.28-.06-.22,0-.24-.2-.13-.27-.26a2.29,2.29,0,0,0,0-.37h.1s-.07-.12,0-.18a.4.4,0,0,1,.31-.16c.06.12.17.15.19.33a.22.22,0,0,0,.22-.09,1.45,1.45,0,0,1-.22-.21c0-.19,0-.34.08-.44s.16,0,.1,0c.1,0,.16.13.19,0,.14.06.14.31.12.47a.16.16,0,0,0,.08.06,5.67,5.67,0,0,1,.45-1.1c.34-.62.75-1.28,1.15-2l0,0s-.1,0-.06.07,0,0-.06,0a.78.78,0,0,1,0-.14.2.2,0,0,1-.08-.16c0-.06.06-.06.1,0a.44.44,0,0,1,0-.1s0-.11,0-.11.1.11.11.17a.14.14,0,0,1,0,.09,2.84,2.84,0,0,0,.16-.54h0s0,0,0,0v0s0,0,0,0h0a.29.29,0,0,1,.26-.18.36.36,0,0,1,.08.12,9.37,9.37,0,0,0,.82-2c.39,1.48-.29,2.55.21,3.82h0a.08.08,0,0,0,0,.05h0a3,3,0,0,0,.18.36v0h0c0-.09,0-.17.08-.18l0-.3s.19.11.13-.08c.1-.1.18.21.19,0,.05,0,0,.07.07.12s.11,0,.15.09.06.27.18.28,0,.2,0,.3.1.12.12.17,0,.12,0,.18.25.34.18.58c0,.08.09.09.11.17.17-.06.26-.2.39-.3l-.07,0c0-.09.15,0,.09-.08a.1.1,0,0,1,0,0h0c.07.07.14.19,0,.25l0,0s0,.07,0,.11h.07s0,.05,0,.07-.07,0-.08,0a.16.16,0,0,0,0,.16,1.64,1.64,0,0,1-.41.24l1.49,2c.48.66.69,1.78,1.2,2.49a9.2,9.2,0,0,1,.21,1.26c.07.84.66.17.93.51a2.37,2.37,0,0,1,.34,1l2.72-.34a1.19,1.19,0,0,0-.1-1.1c-.3-.53-.63-1-.73-1.17a7.23,7.23,0,0,0-1.41-2,6.49,6.49,0,0,1-1.57-3.23,13.16,13.16,0,0,1,.3-4.28c.18-1.39-.34-3,0-4.36,1.4,1,3.31,1.21,4.86,1.66.42.12,4.71,1.77,3.36.11.52-.55,1.09.12,1.5-.16-.06-.09-.24-.12-.25-.24a4.72,4.72,0,0,1,1.61.26c-.22-.5,1-.1,1.17-.15-.05-.07-.13-.11-.18-.18a2.23,2.23,0,0,1,1.23,0s0-.09,0-.08c1.48-.45,3-1.34,4.48-1.55.81-.12,2-.22,2.33.76a3.06,3.06,0,0,1,.08.5.2.2,0,0,0,.16.09,1.27,1.27,0,0,1,.05.48h0s0,0,0,.06a.21.21,0,0,1-.06.08s.06.12.14.15,0,0,0,0,0,.09-.07.09,0-.06-.05-.07.05.21.1.28a.31.31,0,0,1,.41.13s0,0,.07,0,.06.2.19.12a0,0,0,0,0,0,0c-.06,0-.06.07-.16.07.06.21,0,.44-.2.48,0,.11,0,.18-.06.19.14,0,.13.2.17.3h0s0,0,0,.08.1,0,.21,0,0-.14,0-.12c0-.2.26-.12.08-.43.08,0,.09-.09.1-.18h0v0h0c0-.09,0-.17.08-.18l0-.3c.05,0,.19.11.13-.08.11-.09.18.21.19,0,.05,0,.05.07.07.12s.11,0,.15.09.07.27.19.28,0,.2,0,.31.1.11.12.16,0,.12,0,.18.25.34.18.58c0,.08.09.09.12.17s.25-.2.38-.3l-.07,0c0-.09.15,0,.09-.08l.06,0h0c.08.07.14.19,0,.25l0,0s0,.07-.05.11h.07s0,0,0,.06a.07.07,0,0,1-.08,0,.16.16,0,0,0,0,.16,1.25,1.25,0,0,1-.44.24,2.09,2.09,0,0,1-.16.27s0,.05,0,.06h0a3.39,3.39,0,0,0,0,.44h0a0,0,0,0,1-.06,0,.17.17,0,0,1-.11.15l0,0a.19.19,0,0,1,.17,0s0,0-.08,0,0,.05-.06.06a.3.3,0,0,1,0,.1h.07v.05h-.07a.45.45,0,0,1,0,.11s-.08,0,0,.07-.13.51-.07.8c-.15.05-.23,0-.34,0-.05.21,0,.48-.26.52a1.21,1.21,0,0,1,.05-.44h0v0h0a.07.07,0,0,0,0-.05h0s0-.07.05-.07.06,0,.12,0,.13-.38.31-.47c-.1-.43,0-1.14-.32-1.22.15-.07,0-.09-.12-.17s0,.09,0,.13-.07,0-.09,0,0,.11,0,.48c-.24.2-.21.41-.11.87l-.13.07c0,.47.08,1.06.11,1.44h0s0,.06,0,.15a1.49,1.49,0,0,1,0,.28c0,.08,0,.14,0,.2s0-.14.05-.21.09,0,.1,0,0-.16.06-.25a.34.34,0,0,1,.38.07,2.9,2.9,0,0,0,.19.94c.15.13.39.1.51.29.19-.21.52,0,.64-.21.06.06.17,0,.28,0a1.1,1.1,0,0,0,.35-.6.64.64,0,0,1,.33.38.6.6,0,0,0-.08.37c.07.38.28.24.43.37,0,.17,0,.32,0,.49l-.28,0c0-.27-.23-.24-.3-.45a.7.7,0,0,1-.38,0,5.88,5.88,0,0,0,.1.65c-.15.08,0,.13-.06.25-.12-.05-.19-.18-.32-.2-.15-.33,0-.74-.23-.93,0,.12,0,.32-.13.38s0-.12,0-.12-.13.07-.23,0-.24-.26-.35-.49c-.13.16-.29.08-.41.18s0,.08-.07.13a2.93,2.93,0,0,0-.19.42c.12.73,1,0,.91.44-.09.73.78.87.78.87l2.38-.25s0,.11,0,.17c0,.32.12.42.25.44.32,1,.58,2,.94,2,.54,0,3.65-.52,3.65-.52s.61-.5-1.32-2.8l-.31-.38c0-.29-.09-.76-.18-1.21h0a15.65,15.65,0,0,1-.17-5.24c.14-.6.57-1.19.48-1.74a3.37,3.37,0,0,1,.42.5.88.88,0,0,0,.05-1.3c.27.14.28.52.48.71.59-.79.64-1.29-.17-2.18a1.33,1.33,0,0,1,1.08.73,5.58,5.58,0,0,1,.6.49c.32-.47-.43-1.32-.75-1.52a1,1,0,0,1,1.12-.12.81.81,0,0,0-.46-.39c.14-.16.38-.18.47-.41.21.05.53.17.6.4A.37.37,0,0,0,143,129a2.14,2.14,0,0,0,.67.27,2.37,2.37,0,0,0,0-.84c.31,0,.61.14.92.18.18-.48-.43-1.49.58-1,.39.19,1-.12,1.27.11.1.22.21.44.32.66.42.14.39-1.59,1-1s1.27.86,1.2-.09c0,0,0,0,0,0a.54.54,0,0,0,0-.18.92.92,0,0,1,0,.16,1.42,1.42,0,0,0,.2-.76c.33.21.15,1,.63.82,0,.52.51-.11.36.47.26,0,.39-.31.45-.52a1.17,1.17,0,0,1,0,.76c.38,0,.38-.82.49-1,.08.4.2,1-.06,1.39.21.22.44-.29.63-.27.07.36.06.78.12,1.12.07-.13.16-.15.27-.07a.3.3,0,0,1-.09.3.61.61,0,0,1,.19,0,1.39,1.39,0,0,1-.21.65c.11-.14.34-.33.52-.3,0,.4,0,.81,0,1.21h.19c0,.13,0,.27.07.4l.21-.16c-.06,0,.75,1,.77,1,.24.31.72-.34.76.16a1.83,1.83,0,0,0,.21-1c.19.2.26.5.57.53a.58.58,0,0,1-.06-.15c.8.7.83-.28.95-.91.42,1.32.47-.14.61-.31,0,.07.08.06.13.09-.14-1.42-.94-2.45.65-3.24.83-.42,2.37-.81,2.82-1.69.52-1-.19-1.83,0-2.78a8,8,0,0,0,.3-3.15,8.22,8.22,0,0,1,0-1.41c0-.43-.58-.57-.43-1s-.08-.69.24-1.14a2.33,2.33,0,0,0,.24-.93c0-.26-.35-.91-.3-1.05C160.41,114,161.19,113.71,160.83,113.3ZM109.56,127c-.17,0-.18.07-.26.11l.07-.24c-.09,0-.08.13-.21.13s0-.05-.11-.05a.52.52,0,0,1-.21.17s-.11-.28,0-.29.07.06.09.07l.09,0a.07.07,0,0,0,.06,0c.13-.16.24-.36.34-.31v-.06s.08,0,.09-.11h0l0-.1-.07-.1,0,0v0l0,0s0,0-.09,0,0-.21.08-.15a.25.25,0,0,1,0,.09.28.28,0,0,1,.1-.12l-.11.34a.59.59,0,0,1,.1.17s-.08,0-.1-.06h0l-.13.39h.1s0-.08,0-.11,0,0,0,0h0s0,0,0,0l.11,0h0s0,0,0,.07.07,0,.07-.06a.22.22,0,0,1,.11.12h0v0h0s0,0,0,0A.88.88,0,0,1,109.56,127Zm6.2-1.79c-.16,0-.17.06-.26.1l-1-.24v0l-.07,0v0h0v0c-.07,0-.13,0-.08.11-.2,0-.14-.09-.35,0,0-.08,0-.17.06-.25l-1-.26v-.21a.2.2,0,0,0,.22-.17h0a.15.15,0,0,0,0,.1c0,.08.08.12.15.11s0,0,0,0,0,0,0,0,0-.1,0-.16l.25,0c0,.09,0,.17,0,.21h0a0,0,0,0,0,0,0,.38.38,0,0,0,.24-.09l.16.08s0,0,0,0l0,.06h-.08s-.06,0-.07,0h0a.16.16,0,0,0,0,.14.22.22,0,0,0-.16.19l.47.12a.08.08,0,0,1,0-.07h0s.07,0,.08,0,0-.14,0-.24c-.16,0-.2-.1-.18-.24h.06s0,0,0,0l0,0,0,0a.59.59,0,0,1-.09-.52c.18.12.3,0,.44-.06s-.13-.11-.09-.24.1,0,.15.06a0,0,0,0,0,0,0v0h0c.06-.13.15-.09.31-.07-.1.11,0,.26.09.37a.34.34,0,0,1,.39.18s-.07.07-.1.11a.32.32,0,0,0,0-.09c-.08,0-.13.08-.08.16s.06,0,.08,0l0,0h0s0,0,0,0a2.94,2.94,0,0,1,.17.26c-.06,0-.09,0-.11-.06s0,0-.06,0-.05.08-.09.11,0,0,0,.07a.94.94,0,0,0-.62,0s-.06.18,0,.17.06.06.09.07l.08,0c.11,0,.15-.07.18.07.16,0,.09-.18.31-.14a.4.4,0,0,1,0-.11s0,0,0,0a0,0,0,0,1,0,0h0a0,0,0,0,0,0,0l.1,0h0s0,0,0,.07a.06.06,0,0,0,.07,0,.18.18,0,0,1,.1.11h0v0h0a.08.08,0,0,0,0,0A.93.93,0,0,1,115.76,125.22Zm25.34-17s0,0,0,0-.22.12-.35.1l-.1,0a.54.54,0,0,0,.1.44l-.05,0s0,0,0,0v0h-.06c0,.14,0,.24.17.24,0,.1,0,.17,0,.24s0,0-.07,0h0s0,.08,0,.11l-.08,0s0,0,0,0h0c-.06,0-.13,0-.07.1-.21,0-.15-.08-.35,0,0-.17,0-.39.22-.45a.12.12,0,0,1,0-.13h0s0,0,.07,0a.19.19,0,0,1,.08,0,.12.12,0,0,0-.05,0s-.06,0-.06,0l-.15-.08a.34.34,0,0,1-.24.1,0,0,0,0,1,0,0h0a.2.2,0,0,1,0-.14l-.29.12h0l-.07,0h0l-.36.15v-.2a.22.22,0,0,0,.22-.17h0a.29.29,0,0,0,0,.11.16.16,0,0,0,.14.11h0s0,0,0,0,0,0,0,0h0a.75.75,0,0,0,0-.16,1.14,1.14,0,0,0,.25,0v.06l.69-.3a.17.17,0,0,1,0-.07l.09,0,.35-.15c0-.07-.12-.08-.09-.19s.1,0,.14.06,0,0,0,0v0h0c.06-.12.14-.09.31-.07Zm6.29,5c-.12,0-.13,0-.19.08l.06-.18c-.07,0-.06.1-.16.1s0,0-.08,0a.33.33,0,0,1-.15.14s-.07-.22,0-.22.05,0,.07.05l.06,0h0c.09-.12.17-.27.25-.23v0s.06,0,.06-.08h0l0-.08a.43.43,0,0,1,0-.07,0,0,0,0,1,0,0h0l0,0s0,0-.06,0,0-.16.06-.12a.14.14,0,0,1,0,.07.31.31,0,0,1,.07-.09l-.08.25a1,1,0,0,1,.08.14s-.06,0-.08,0h0l-.09.31h.07s0-.06,0-.08,0,0,0,0h.15s0,0,0,.06a.05.05,0,0,0,.05,0,.11.11,0,0,1,.07.09h0v0h0v0A.66.66,0,0,1,147.39,113.2Z" fill="#AA9767"></path>
</svg>