<?xml version="1.0" encoding="UTF-8"?>
<svg viewBox="0 0 28 36" version="1.1" xmlns="http://www.w3.org/2000/svg" xmlns:xlink="http://www.w3.org/1999/xlink">
    <title>Timer Icon</title>
    <defs>
        <polygon id="path-1" points="0 36.1052632 28 36.1052632 28 0 0 0"></polygon>
    </defs>
    <path d="M28,21.3048657 C28,29.1245943 21.7318049,35.4636868 14,35.4636868 C6.26798615,35.4636868 0,29.1245943 0,21.3048657 C0,13.4851371 6.26798615,7.14583333 14,7.14583333 C21.7318049,7.14583333 28,13.4851371 28,21.3048657 Z M25.703027,21.4511931 C25.703027,14.9952764 20.5280462,9.76158866 14.1447187,9.76158866 C7.76121872,9.76158866 2.58641041,14.9952764 2.58641041,21.4511931 C2.58641041,27.9071098 7.76121872,33.140623 14.1447187,33.140623 C20.5280462,33.140623 25.703027,27.9071098 25.703027,21.4511931 Z" fill="#4A4A4A"></path>
    <path d="M28,21.3048657 C28,29.1245943 21.7318049,35.4636868 14,35.4636868 C6.26798615,35.4636868 0,29.1245943 0,21.3048657 C0,13.4851371 6.26798615,7.14583333 14,7.14583333 C21.7318049,7.14583333 28,13.4851371 28,21.3048657 Z M25.703027,21.4511931 C25.703027,14.9952764 20.5280462,9.76158866 14.1447187,9.76158866 C7.76121872,9.76158866 2.58641041,14.9952764 2.58641041,21.4511931 C2.58641041,27.9071098 7.76121872,33.140623 14.1447187,33.140623 C20.5280462,33.140623 25.703027,27.9071098 25.703027,21.4511931 Z" fill="#4A4A4A"></path>
    <path d="M14.1633333,12.3935114 C13.9561333,12.3935114 13.8133333,12.2878477 13.8133333,12.1575292 L13.8133333,8.38181545 C13.8133333,8.2517171 13.9561333,8.14583333 14.1633333,8.14583333 C14.3705333,8.14583333 14.5133333,8.2517171 14.5133333,8.38181545 L14.5133333,12.1575292 C14.5133333,12.2878477 14.3705333,12.3935114 14.1633333,12.3935114" fill="#F4F4F4"></path>
    <path d="M14.1633333,35.4636868 C13.9561333,35.4636868 13.8133333,35.3580177 13.8133333,35.2276924 L13.8133333,31.451783 C13.8133333,31.3216779 13.9561333,31.2160088 14.1633333,31.2160088 C14.3705333,31.2160088 14.5133333,31.3216779 14.5133333,31.451783 L14.5133333,35.2276924 C14.5133333,35.3580177 14.3705333,35.4636868 14.1633333,35.4636868" fill="#F4F4F4"></path>
    <path d="M27.7668722,21.9463364 L24.0333454,21.9463364 C23.904483,21.9463364 23.8,21.7320647 23.8,21.5923633 C23.8,21.4528978 23.904483,21.2383901 24.0333454,21.2383901 L27.7668722,21.2383901 C27.8957346,21.2383901 28,21.4528978 28,21.5923633 C28,21.7320647 27.8957346,21.9463364 27.7668722,21.9463364" fill="#F4F4F4"></path>
    <path d="M3.96666667,21.9463364 L0.233333333,21.9463364 C0.104477612,21.9463364 0,21.7320647 0,21.5923633 C0,21.4528978 0.104477612,21.2383901 0.233333333,21.2383901 L3.96666667,21.2383901 C4.09552239,21.2383901 4.2,21.4528978 4.2,21.5923633 C4.2,21.7320647 4.09552239,21.9463364 3.96666667,21.9463364" fill="#F4F4F4"></path>
    <path d="M6.4670695,16.751646 C5.70807138,18.0623737 5.27333333,19.5878592 5.27333333,21.2163704 C5.27333333,26.1037698 9.19089503,30.065596 14.0234358,30.065596 C18.8559766,30.065596 22.7733333,26.1037698 22.7733333,21.2163704 C22.7733333,16.3287638 18.8559766,12.3669376 14.0234358,12.3669376 L14.0621749,21.2163704 L6.4670695,16.751646 Z" fill="#AA9767"></path>
    <path d="M14.2998654,27.7430341 C10.8208553,27.7430341 8,24.8901566 8,21.3716532 C8,17.8528774 10.8208553,15 14.2998654,15 C17.779414,15 20.6,17.8528774 20.6,21.3716532 C20.6,24.8901566 17.779414,27.7430341 14.2998654,27.7430341 Z" id="Fill-153" fill="#202020"></path>
    <mask id="mask-2" fill="white">
        <use xlink:href="#path-1"></use>
    </mask>
    <path d="M14.3,24.4636868 C12.6431399,24.4636868 11.3,23.1053098 11.3,21.4296537 C11.3,19.7539976 12.6431399,18.3955753 14.3,18.3955753 C15.9568153,18.3955753 17.3,19.7539976 17.3,21.4296537 C17.3,23.1053098 15.9568153,24.4636868 14.3,24.4636868 Z" fill="#AA9767" mask="url(#mask-2)"></path>
    <g transform="translate(9.706667, 0.000000)" fill="#4A4A4A">
        <polygon points="14.5331948 11.3271414 13.7666667 10.6400958 15.1001385 9.20330237 15.8666667 9.89052659"></polygon>
        <polygon points="13.7666667 9.05370809 14.8749703 7.7874097 17.2666667 10.060843 16.1583631 11.3271414"></polygon>
        <polygon id="Fill-155" points="4.10666667 7.0130934 4.80666667 7.0130934 4.80666667 4.88925439 4.10666667 4.88925439"></polygon>
        <polygon id="Fill-157" points="2.98666667 6.30514706 5.78666667 6.30514706 5.78666667 4.88925439 2.98666667 4.88925439"></polygon>
        <path d="M4.2,7.46591482 C2.44259249,7.46591482 1.01791313,6.02510064 1.01791313,4.24779011 C1.01791313,2.47047958 2.44259249,1.0296654 4.2,1.0296654 C5.95740751,1.0296654 7.38208687,2.47047958 7.38208687,4.24779011 C7.38208687,6.02510064 5.95740751,7.46591482 4.2,7.46591482 M4.2,0 C1.8804349,0 0,1.90173124 0,4.24779011 C0,6.5936248 1.8804349,8.49535604 4.2,8.49535604 C6.5195651,8.49535604 8.4,6.5936248 8.4,4.24779011 C8.4,1.90173124 6.5195651,0 4.2,0" id="Fill-160"></path>
    </g>
</svg>