<svg style="position: absolute; width: 0; height: 0; overflow: hidden;" version="1.1" xmlns="http://www.w3.org/2000/svg" xmlns:xlink="http://www.w3.org/1999/xlink">
<defs>
<symbol id="icon-LiftedLogic" viewBox="0 0 221 32">
<title>Lifted Logic Web Design in Kansas City</title>
<path d="M186.049 3.818h-9.095l-11.116 20.884h20.547v-6.625h-8.982z"></path>
<path d="M192.561 3.818h9.095l11.116 20.884h-20.547v-6.625h8.926z"></path>
<path d="M7.691 4.323h4.098v16.112h9.825v3.537h-13.923v-19.649z"></path>
<path d="M27.958 7.691h-3.818v-3.481h3.874l-0.056 3.481zM24.14 9.432h3.874v14.54h-3.874v-14.54z"></path>
<path d="M37.67 4.154l0.786 0.056v3.088c-0.225 0-0.561-0.056-1.067-0.056-0.393-0.056-0.786 0.056-1.011 0.337-0.168 0.225-0.281 0.505-0.281 0.786v1.235h2.47v2.695h-2.526v11.733h-3.761v-11.789h-2.133v-2.695h2.077v-0.954c0-1.572 0.281-2.639 0.786-3.2 0.561-0.898 1.909-1.291 3.986-1.291 0.281 0 0.505 0 0.674 0.056z"></path>
<path d="M40.365 12.295v-2.751h2.021v-4.042h3.761v4.042h2.358v2.695h-2.358v7.691c-0.056 0.393 0 0.786 0.225 1.123 0.449 0.225 0.898 0.281 1.404 0.225h0.786v2.807l-1.797 0.056c-1.797 0.056-3.032-0.225-3.705-0.954-0.449-0.561-0.674-1.291-0.618-2.021v-8.982h-2.077z"></path>
<path d="M60.463 9.712c1.011 0.449 1.909 1.235 2.526 2.133s1.011 1.909 1.179 3.032c0.112 0.954 0.168 1.909 0.112 2.863h-10.611c0.056 1.46 0.561 2.47 1.516 3.088 0.618 0.393 1.347 0.561 2.077 0.561 1.235 0.112 2.358-0.561 2.919-1.684h3.874c-0.168 1.011-0.674 1.909-1.404 2.639-1.291 1.404-3.144 2.133-5.502 2.133-1.853 0-3.705-0.618-5.109-1.797-1.516-1.179-2.246-3.144-2.246-5.839 0-2.526 0.674-4.435 2.021-5.782 1.404-1.347 3.256-2.077 5.221-2.021 1.123 0 2.302 0.225 3.425 0.674zM54.737 13.025c-0.561 0.618-0.898 1.403-1.011 2.246h6.568c0-0.898-0.393-1.684-1.011-2.302-0.618-0.505-1.404-0.786-2.246-0.786-0.842-0.056-1.684 0.225-2.302 0.842z"></path>
<path d="M73.881 9.656c0.674 0.393 1.291 0.954 1.684 1.628v-6.961h3.874v19.649h-3.705v-2.021c-0.449 0.786-1.067 1.404-1.853 1.853-0.786 0.393-1.684 0.618-2.582 0.561-1.684 0-3.256-0.73-4.267-2.077-1.179-1.516-1.796-3.368-1.74-5.277 0-2.47 0.561-4.435 1.74-5.839 1.123-1.403 2.807-2.189 4.603-2.133 0.73 0.056 1.516 0.225 2.246 0.618zM74.835 20.042c0.618-0.898 0.898-2.021 0.842-3.088 0-1.796-0.449-3.032-1.347-3.818-0.561-0.449-1.235-0.73-1.909-0.674-1.011-0.056-1.909 0.449-2.47 1.235-0.561 0.954-0.842 2.021-0.786 3.144-0.056 1.123 0.225 2.246 0.786 3.2 0.505 0.786 1.46 1.291 2.414 1.235 0.954 0 1.909-0.449 2.47-1.235v0z"></path>
<path d="M90.218 4.323h4.098v16.112h9.825v3.537h-13.923v-19.649z"></path>
<path d="M118.175 22.175c-1.235 1.516-3.088 2.246-5.614 2.246s-4.379-0.73-5.614-2.246c-1.235-1.572-1.909-3.481-1.853-5.502-0.056-1.965 0.618-3.93 1.853-5.446s3.088-2.302 5.614-2.302c2.526 0 4.379 0.786 5.614 2.302 1.235 1.572 1.909 3.481 1.853 5.446 0.056 2.021-0.618 3.986-1.853 5.502zM115.144 20.098c0.674-1.011 0.954-2.189 0.898-3.368 0.056-1.179-0.225-2.358-0.898-3.368-1.179-1.403-3.312-1.572-4.772-0.393-0.112 0.112-0.281 0.225-0.393 0.393-0.674 1.011-0.954 2.189-0.898 3.368-0.056 1.179 0.225 2.358 0.898 3.368 1.179 1.404 3.312 1.572 4.772 0.393 0.168-0.112 0.281-0.225 0.393-0.393z"></path>
<path d="M129.965 9.432c0.954 0.449 1.74 1.179 2.246 2.133v-2.077h3.705v13.811c0 1.853-0.337 3.312-0.954 4.267-1.067 1.628-3.144 2.47-6.232 2.47-1.572 0.056-3.144-0.337-4.547-1.123-1.179-0.674-1.909-1.909-1.965-3.256h4.098c0.056 0.393 0.225 0.73 0.505 0.954 0.618 0.393 1.347 0.561 2.077 0.505 1.347 0 2.302-0.449 2.751-1.404 0.393-0.954 0.505-1.965 0.449-2.975v-0.954c-0.281 0.561-0.674 1.011-1.179 1.404-0.842 0.618-1.909 0.898-2.919 0.842-1.74 0.056-3.368-0.674-4.491-1.965s-1.684-3.088-1.684-5.333c-0.056-1.965 0.505-3.874 1.628-5.446 1.067-1.46 2.751-2.302 4.547-2.189 0.674 0 1.347 0.112 1.965 0.337zM131.256 19.874c0.618-0.674 0.898-1.74 0.898-3.2 0.056-1.123-0.225-2.246-0.898-3.2-0.561-0.73-1.404-1.123-2.302-1.067-1.235-0.056-2.358 0.73-2.751 1.909-0.281 0.786-0.449 1.628-0.393 2.47 0 0.786 0.112 1.516 0.449 2.246 0.393 1.179 1.516 1.909 2.751 1.853 0.842-0.056 1.684-0.393 2.246-1.011z"></path>
<path d="M142.26 7.691h-3.874v-3.481h3.874v3.481zM138.386 9.432h3.874v14.54h-3.874v-14.54z"></path>
<path d="M154.105 14.653c-0.056-0.505-0.281-1.011-0.561-1.46-0.449-0.618-1.179-0.954-1.965-0.898-1.235-0.056-2.302 0.73-2.639 1.909-0.281 0.842-0.393 1.796-0.393 2.695-0.056 0.898 0.112 1.74 0.393 2.582 0.337 1.123 1.404 1.853 2.582 1.797 0.73 0.056 1.404-0.168 1.909-0.73 0.393-0.561 0.618-1.179 0.674-1.853h3.874c-0.112 1.179-0.561 2.302-1.235 3.256-1.179 1.684-2.975 2.47-5.333 2.47s-4.042-0.674-5.165-2.077c-1.179-1.572-1.74-3.481-1.684-5.389 0-2.47 0.618-4.435 1.853-5.839 1.291-1.403 3.144-2.189 5.053-2.077 1.572-0.056 3.144 0.337 4.491 1.235 1.179 0.842 1.853 2.246 2.077 4.323l-3.93 0.056z"></path>
</symbol>
<symbol id="icon-location" viewBox="0 0 24 24">
<title>Location</title>
<g class="path1" fill-rule="evenodd" transform="translate(6, 4)">
  <path class="path1" d="M5.78,0 C2.58779415,5.13345854e-16 6.03961325e-16,2.58779415 0,5.78 C0,9.164292 3.388712,14.549688 4.976512,16.603832 C5.16860043,16.8534107 5.46560864,16.9997498 5.78054904,16.9999894 C6.09548944,17.000229 6.39272,16.8543422 6.585188,16.605056 C8.17394,14.556284 11.56,9.184692 11.56,5.78 C11.56,4.24704869 10.9510375,2.77688307 9.8670772,1.6929228 C8.78311693,0.608962537 7.31295131,-2.46517372e-16 5.78,0 Z M5.78,7.48 C4.4655623,7.48 3.4,6.4144377 3.4,5.1 C3.4,3.7855623 4.4655623,2.72 5.78,2.72 C7.0944377,2.72 8.16,3.7855623 8.16,5.1 C8.16,6.4144377 7.0944377,7.48 5.78,7.48 Z"></path>
</g>
</symbol>
<symbol id="icon-phone" viewBox="0 0 32 32">
<title>phone</title>
<path class="path1" d="M31.985 25.248c0.068 0.52-0.090 0.971-0.474 1.355l-4.506 4.471c-0.203 0.226-0.469 0.418-0.796 0.576s-0.649 0.26-0.965 0.305c-0.023 0-0.090 0.006-0.203 0.017s-0.26 0.017-0.44 0.017c-0.429 0-1.124-0.073-2.084-0.22s-2.134-0.508-3.523-1.084c-1.389-0.576-2.964-1.44-4.726-2.592s-3.636-2.733-5.623-4.743c-1.581-1.558-2.891-3.049-3.93-4.472s-1.874-2.738-2.507-3.947c-0.632-1.208-1.107-2.304-1.423-3.286s-0.531-1.829-0.644-2.541-0.158-1.27-0.136-1.677c0.023-0.407 0.034-0.632 0.034-0.678 0.045-0.316 0.147-0.638 0.305-0.965s0.35-0.593 0.576-0.796l4.506-4.506c0.316-0.316 0.678-0.474 1.084-0.474 0.294 0 0.553 0.085 0.779 0.254s0.418 0.378 0.576 0.627l3.625 6.877c0.203 0.361 0.26 0.757 0.169 1.186s-0.282 0.79-0.576 1.084l-1.66 1.66c-0.045 0.045-0.085 0.119-0.119 0.22s-0.051 0.186-0.051 0.254c0.090 0.474 0.294 1.016 0.61 1.626 0.271 0.542 0.689 1.203 1.253 1.982s1.366 1.677 2.405 2.693c1.016 1.039 1.92 1.846 2.71 2.422s1.451 0.999 1.982 1.27 0.937 0.435 1.22 0.491l0.423 0.085c0.045 0 0.119-0.017 0.22-0.051s0.175-0.073 0.22-0.119l1.931-1.965c0.407-0.361 0.881-0.542 1.423-0.542 0.384 0 0.689 0.068 0.915 0.203h0.034l6.538 3.862c0.474 0.294 0.757 0.666 0.847 1.118z"></path>
</symbol>
<symbol id="icon-play" viewBox="0 0 32 32">
<title>play</title>
<path d="M1.135 32c-0.136 0-0.272-0.029-0.399-0.089-0.331-0.155-0.542-0.487-0.542-0.852v-30.118c0-0.365 0.211-0.698 0.542-0.852 0.329-0.154 0.721-0.104 1.001 0.129l18.071 15.059c0.215 0.179 0.339 0.444 0.339 0.723s-0.124 0.544-0.339 0.723l-18.071 15.059c-0.172 0.144-0.386 0.218-0.602 0.218zM2.076 2.95v26.099l15.659-13.050-15.659-13.050z"></path>
<path d="M12.794 32c-0.136 0-0.272-0.029-0.399-0.089-0.331-0.155-0.542-0.487-0.542-0.852v-4.663c0-0.52 0.422-0.941 0.941-0.941s0.941 0.422 0.941 0.941v2.654l15.659-13.050-15.659-13.050v2.654c0 0.52-0.422 0.941-0.941 0.941s-0.941-0.422-0.941-0.941v-4.663c0-0.365 0.211-0.698 0.542-0.852 0.329-0.154 0.721-0.104 1.001 0.129l18.071 15.059c0.215 0.179 0.339 0.444 0.339 0.723s-0.124 0.544-0.339 0.723l-18.071 15.059c-0.172 0.144-0.386 0.218-0.602 0.218z"></path>
</symbol>
<symbol id="icon-chevron-down" viewBox="0 0 32 32">
<title>chevron-down</title>
<path class="path1" d="M9.875 10.437l6.125 6.125 6.125-6.125 1.875 1.875-8 8-8-8z"></path>
</symbol>
<symbol id="icon-chevron-left" viewBox="0 0 32 32">
<title>chevron-left</title>
<path class="path1" d="M20.563 21.437l-1.875 1.875-8-8 8-8 1.875 1.875-6.125 6.125z"></path>
</symbol>
<symbol id="icon-chevron-right" viewBox="0 0 32 32">
<title>chevron-right</title>
<path class="path1" d="M11.437 21.812l6.125-6.125-6.125-6.125 1.875-1.875 8 8-8 8z"></path>
</symbol>
<symbol id="icon-chevron-up" viewBox="0 0 32 32">
<title>chevron-up</title>
<path class="path1" d="M9.875 20.563l-1.875-1.875 8-8 8 8-1.875 1.875-6.125-6.125z"></path>
</symbol>
<symbol id="icon-facebook" viewBox="0 0 19 32">
<title>Facebook</title>
<g transform="translate(0, 2)">
<path class="path1" d="M17.125 0.214v4.714h-2.804q-1.536 0-2.071 0.643t-0.536 1.929v3.375h5.232l-0.696 5.286h-4.536v13.554h-5.464v-13.554h-4.554v-5.286h4.554v-3.893q0-3.321 1.857-5.152t4.946-1.83q2.625 0 4.071 0.214z"></path>
</g>
</symbol>
<symbol id="icon-instagram" viewBox="0 0 27 32">
<title>instagram</title>
<path class="path1" d="M18.286 16q0-1.893-1.339-3.232t-3.232-1.339-3.232 1.339-1.339 3.232 1.339 3.232 3.232 1.339 3.232-1.339 1.339-3.232zM20.75 16q0 2.929-2.054 4.982t-4.982 2.054-4.982-2.054-2.054-4.982 2.054-4.982 4.982-2.054 4.982 2.054 2.054 4.982zM22.679 8.679q0 0.679-0.482 1.161t-1.161 0.482-1.161-0.482-0.482-1.161 0.482-1.161 1.161-0.482 1.161 0.482 0.482 1.161zM13.714 4.75q-0.125 0-1.366-0.009t-1.884 0-1.723 0.054-1.839 0.179-1.277 0.33q-0.893 0.357-1.571 1.036t-1.036 1.571q-0.196 0.518-0.33 1.277t-0.179 1.839-0.054 1.723 0 1.884 0.009 1.366-0.009 1.366 0 1.884 0.054 1.723 0.179 1.839 0.33 1.277q0.357 0.893 1.036 1.571t1.571 1.036q0.518 0.196 1.277 0.33t1.839 0.179 1.723 0.054 1.884 0 1.366-0.009 1.366 0.009 1.884 0 1.723-0.054 1.839-0.179 1.277-0.33q0.893-0.357 1.571-1.036t1.036-1.571q0.196-0.518 0.33-1.277t0.179-1.839 0.054-1.723 0-1.884-0.009-1.366 0.009-1.366 0-1.884-0.054-1.723-0.179-1.839-0.33-1.277q-0.357-0.893-1.036-1.571t-1.571-1.036q-0.518-0.196-1.277-0.33t-1.839-0.179-1.723-0.054-1.884 0-1.366 0.009zM27.429 16q0 4.089-0.089 5.661-0.179 3.714-2.214 5.75t-5.75 2.214q-1.571 0.089-5.661 0.089t-5.661-0.089q-3.714-0.179-5.75-2.214t-2.214-5.75q-0.089-1.571-0.089-5.661t0.089-5.661q0.179-3.714 2.214-5.75t5.75-2.214q1.571-0.089 5.661-0.089t5.661 0.089q3.714 0.179 5.75 2.214t2.214 5.75q0.089 1.571 0.089 5.661z"></path>
</symbol>
<symbol id="icon-google_plus" viewBox="0 0 36 28">
<title>google plus</title>
<path d="M22.453 14.266c0 6.547-4.391 11.188-11 11.188-6.328 0-11.453-5.125-11.453-11.453s5.125-11.453 11.453-11.453c3.094 0 5.672 1.125 7.672 3l-3.109 2.984c-0.844-0.812-2.328-1.766-4.562-1.766-3.906 0-7.094 3.234-7.094 7.234s3.187 7.234 7.094 7.234c4.531 0 6.234-3.266 6.5-4.937h-6.5v-3.938h10.813c0.109 0.578 0.187 1.156 0.187 1.906zM36 12.359v3.281h-3.266v3.266h-3.281v-3.266h-3.266v-3.281h3.266v-3.266h3.281v3.266h3.266z"></path>
</symbol>
<symbol id="icon-pinterest" viewBox="0 0 23 32">
<title>pinterest</title>
<path class="path1" d="M0 10.661q0-1.929 0.67-3.634t1.848-2.973 2.714-2.196 3.304-1.393 3.607-0.464q2.821 0 5.25 1.188t3.946 3.455 1.518 5.125q0 1.714-0.339 3.357t-1.071 3.161-1.786 2.67-2.589 1.839-3.375 0.688q-1.214 0-2.411-0.571t-1.714-1.571q-0.179 0.696-0.5 2.009t-0.42 1.696-0.366 1.268-0.464 1.268-0.571 1.116-0.821 1.384-1.107 1.545l-0.25 0.089-0.161-0.179q-0.268-2.804-0.268-3.357 0-1.643 0.384-3.688t1.188-5.134 0.929-3.625q-0.571-1.161-0.571-3.018 0-1.482 0.929-2.786t2.357-1.304q1.089 0 1.696 0.723t0.607 1.83q0 1.179-0.786 3.411t-0.786 3.339q0 1.125 0.804 1.866t1.946 0.741q0.982 0 1.821-0.446t1.402-1.214 1-1.696 0.679-1.973 0.357-1.982 0.116-1.777q0-3.089-1.955-4.813t-5.098-1.723q-3.571 0-5.964 2.313t-2.393 5.866q0 0.786 0.223 1.518t0.482 1.161 0.482 0.813 0.223 0.545q0 0.5-0.268 1.304t-0.661 0.804q-0.036 0-0.304-0.054-0.911-0.268-1.616-1t-1.089-1.688-0.58-1.929-0.196-1.902z"></path>
</symbol>
<symbol id="icon-twitter" viewBox="0 0 30 32">
<title>Twitter</title>
<path class="path1" d="M28.929 7.286q-1.196 1.75-2.893 2.982 0.018 0.25 0.018 0.75 0 2.321-0.679 4.634t-2.063 4.437-3.295 3.759-4.607 2.607-5.768 0.973q-4.839 0-8.857-2.589 0.625 0.071 1.393 0.071 4.018 0 7.161-2.464-1.875-0.036-3.357-1.152t-2.036-2.848q0.589 0.089 1.089 0.089 0.768 0 1.518-0.196-2-0.411-3.313-1.991t-1.313-3.67v-0.071q1.214 0.679 2.607 0.732-1.179-0.786-1.875-2.054t-0.696-2.75q0-1.571 0.786-2.911 2.161 2.661 5.259 4.259t6.634 1.777q-0.143-0.679-0.143-1.321 0-2.393 1.688-4.080t4.080-1.688q2.5 0 4.214 1.821 1.946-0.375 3.661-1.393-0.661 2.054-2.536 3.179 1.661-0.179 3.321-0.893z"></path>
</symbol>
<symbol id="icon-linkedin" viewBox="0 0 48 48">
<title>LinkedIn</title>
<g class="path1" transform="translate(8, 6)" fill-rule="evenodd">
<path d="M12 12h5.535v2.837h0.079c0.77-1.381 2.655-2.837 5.464-2.837 5.842 0 6.922 3.637 6.922 8.367v9.633h-5.769v-8.54c0-2.037-0.042-4.657-3.001-4.657-3.005 0-3.463 2.218-3.463 4.509v8.688h-5.767v-18z"></path>
<path d="M2 12h6v18h-6v-18z"></path>
<path d="M8 7c0 1.657-1.343 3-3 3s-3-1.343-3-3c0-1.657 1.343-3 3-3s3 1.343 3 3z"></path>
</g>
</symbol>
<symbol id="icon-youtube" viewBox="0 0 27 32">
<title>youtube</title>
<path class="path1" d="M17.339 22.214v3.768q0 1.196-0.696 1.196-0.411 0-0.804-0.393v-5.375q0.393-0.393 0.804-0.393 0.696 0 0.696 1.196zM23.375 22.232v0.821h-1.607v-0.821q0-1.214 0.804-1.214t0.804 1.214zM6.125 18.339h1.911v-1.679h-5.571v1.679h1.875v10.161h1.786v-10.161zM11.268 28.5h1.589v-8.821h-1.589v6.75q-0.536 0.75-1.018 0.75-0.321 0-0.375-0.375-0.018-0.054-0.018-0.625v-6.5h-1.589v6.982q0 0.875 0.143 1.304 0.214 0.661 1.036 0.661 0.857 0 1.821-1.089v0.964zM18.929 25.857v-3.518q0-1.304-0.161-1.768-0.304-1-1.268-1-0.893 0-1.661 0.964v-3.875h-1.589v11.839h1.589v-0.857q0.804 0.982 1.661 0.982 0.964 0 1.268-0.982 0.161-0.482 0.161-1.786zM24.964 25.679v-0.232h-1.625q0 0.911-0.036 1.089-0.125 0.643-0.714 0.643-0.821 0-0.821-1.232v-1.554h3.196v-1.839q0-1.411-0.482-2.071-0.696-0.911-1.893-0.911-1.214 0-1.911 0.911-0.5 0.661-0.5 2.071v3.089q0 1.411 0.518 2.071 0.696 0.911 1.929 0.911 1.286 0 1.929-0.946 0.321-0.482 0.375-0.964 0.036-0.161 0.036-1.036zM14.107 9.375v-3.75q0-1.232-0.768-1.232t-0.768 1.232v3.75q0 1.25 0.768 1.25t0.768-1.25zM26.946 22.786q0 4.179-0.464 6.25-0.25 1.054-1.036 1.768t-1.821 0.821q-3.286 0.375-9.911 0.375t-9.911-0.375q-1.036-0.107-1.83-0.821t-1.027-1.768q-0.464-2-0.464-6.25 0-4.179 0.464-6.25 0.25-1.054 1.036-1.768t1.839-0.839q3.268-0.357 9.893-0.357t9.911 0.357q1.036 0.125 1.83 0.839t1.027 1.768q0.464 2 0.464 6.25zM9.125 0h1.821l-2.161 7.125v4.839h-1.786v-4.839q-0.25-1.321-1.089-3.786-0.661-1.839-1.161-3.339h1.893l1.268 4.696zM15.732 5.946v3.125q0 1.446-0.5 2.107-0.661 0.911-1.893 0.911-1.196 0-1.875-0.911-0.5-0.679-0.5-2.107v-3.125q0-1.429 0.5-2.089 0.679-0.911 1.875-0.911 1.232 0 1.893 0.911 0.5 0.661 0.5 2.089zM21.714 3.054v8.911h-1.625v-0.982q-0.946 1.107-1.839 1.107-0.821 0-1.054-0.661-0.143-0.429-0.143-1.339v-7.036h1.625v6.554q0 0.589 0.018 0.625 0.054 0.393 0.375 0.393 0.482 0 1.018-0.768v-6.804h1.625z"></path>
</symbol>
<symbol id="icon-arrow-up" viewBox="0 0 24 24">
<title>arrow-up</title>
<path class="path1" d="M6.984 14.016l5.016-5.016 5.016 5.016h-10.031z"></path>
</symbol>
<symbol id="icon-send" viewBox="0 0 24 24">
<title>send</title>
<path d="M2.016 21v-6.984l15-2.016-15-2.016v-6.984l21 9z"></path>
</symbol>
<symbol id="icon-check" viewBox="0 0 32 32">
<title>Check Mark</title>
<g stroke="none" stroke-width="1" fill="none" fill-rule="evenodd" class="path1">
<polyline points="19.3907534 27.5420751 23.8486783 32 33.4877702 19"></polyline>
</g>
</symbol>
<symbol id="icon-calendar" viewBox="0 0 24 24">
<title>Calendar</title>
<g fill-rule="evenodd" class="path1" transform="translate(-14, -14)">
<path d="M33.32,18.4285714 L29.92,18.4285714 L29.92,17.3571429 C29.92,17.1598983 29.7677768,17 29.58,17 C29.3922232,17 29.24,17.1598983 29.24,17.3571429 L29.24,18.4285714 L21.76,18.4285714 L21.76,17.3571429 C21.76,17.1598983 21.6077768,17 21.42,17 C21.2322232,17 21.08,17.1598983 21.08,17.3571429 L21.08,18.4285714 L17.68,18.4285714 C17.3044464,18.4285714 17,18.748368 17,19.1428571 L17,22 L34,22 L34,19.1428571 C34,18.748368 33.6955536,18.4285714 33.32,18.4285714 Z"></path>
<path d="M17,33.3125 C17,33.6921958 17.3044464,34 17.68,34 L33.32,34 C33.6955536,34 34,33.6921958 34,33.3125 L34,23 L17,23 L17,33.3125 Z"></path>
</g>
</symbol>
<symbol id="icon-user" viewBox="0 0 24 24">
<title>User</title>
<g fill-rule="evenodd" class="path1" transform="translate(3, 3)">
<path d="M8.5,10.7368421 C10.6072842,10.7368421 12.5263158,7.75164211 12.5263158,4.47368421 C12.5263158,1.63065789 11.0589474,0 8.5,0 C5.94105263,0 4.47368421,1.63065789 4.47368421,4.47368421 C4.47368421,7.75164211 6.39271579,10.7368421 8.5,10.7368421 Z"></path>
<path d="M16.3533737,13.0278158 C15.2067684,12.3360053 12.8039526,10.9111368 11.3556421,10.2264842 C10.643897,11.0758271 9.60719477,11.5859277 8.5,11.6315789 C7.38942721,11.5854499 6.34996645,11.0725106 5.63773684,10.2191474 C4.18137368,10.9009368 1.78419474,12.3326053 0.6426,13.0270105 C0.243002941,13.2704312 -0.000603733079,13.7047309 -4.96678309e-16,14.1726316 L-4.96678309e-16,14.9732421 C-0.000607249526,15.6309912 0.476161429,16.1919847 1.1254,16.2974526 C3.5634146,16.7093721 6.02806235,16.9441689 8.5,17 C10.9719377,16.9441689 13.4365854,16.7093721 15.8746,16.2974526 C16.5239055,16.1919739 17.0006951,15.6308799 17,14.9730632 L17,14.1757632 C17.0006004,13.7062167 16.7552509,13.2706509 16.3533737,13.0278158 Z"></path>
</g>
</symbol>
<symbol id="icon-search" viewBox="0 0 32 32">
<title>Search</title>
<g class="path1" transform="translate(2, 4)">
<path d="M9.516 14.016c2.484 0 4.5-2.016 4.5-4.5s-2.016-4.5-4.5-4.5-4.5 2.016-4.5 4.5 2.016 4.5 4.5 4.5zM15.516 14.016l4.969 4.969-1.5 1.5-4.969-4.969v-0.797l-0.281-0.281c-1.125 0.984-2.625 1.547-4.219 1.547-3.609 0-6.516-2.859-6.516-6.469s2.906-6.516 6.516-6.516 6.469 2.906 6.469 6.516c0 1.594-0.563 3.094-1.547 4.219l0.281 0.281h0.797z"></path>
</g>
</symbol>
<symbol id="icon-triangle-left" viewBox="0 0 45 45">
<title>Triangle Left</title>
<polygon transform="translate(23.000000, 23.000000) rotate(-90.000000) translate(-23.000000, -23.000000) " points="23 19 29 27 17 27"></polygon>
</symbol>
<symbol id="icon-triangle-right" viewBox="0 0 45 45">
<title>Triangle Right</title>
<polygon transform="translate(23.000000, 23.000000) rotate(90.000000) translate(-23.000000, -23.000000) " points="23 19 29 27 17 27"></polygon>
</symbol>
<symbol id="icon-triangle-down" viewBox="0 0 45 45">
<title>Triangle Down</title>
<polygon transform="translate(23.000000, 23.000000) rotate(180.000000) translate(-23.000000, -23.000000) " points="23 19 29 27 17 27"></polygon>
</symbol>
<symbol id="icon-triangle-up" viewBox="0 0 45 45">
<title>Triangle Up</title>
<polygon transform="translate(23.000000, 23.000000) translate(-23.000000, -23.000000) " points="23 19 29 27 17 27"></polygon>
</symbol>
</defs>
</svg>